<svg id="Layer_1" data-name="Layer 1" xmlns="http://www.w3.org/2000/svg" viewBox="0 0 448.31 290.78"><title>Kansas City Chiefs logo - Brandlogos.net</title><path d="M82.11,527.48c-2.71-1.23-6.27-2.15-9.41-7.1-3.53-5.58-2.29-9.65-1.15-17.36,1.2-8.17,1.07-11.47-1.23-20.55-1.88-7.46-2.94-10-4.11-18.68A125.48,125.48,0,0,1,64.91,451c-.07-4.49.27-8.69.76-14.93.27-3.47,1.12-8.39,4.11-17.41,1-3,3.65-9.94,5.28-13.26,2.73-5.54,5.66-8.28,4.3-18.06-.52-3.76-2-5.77-2.54-10.82-.67-5.72-.28-8.4.79-11.94a22.57,22.57,0,0,1,4.53-8.42,14,14,0,0,1,9.18-5.59,14.29,14.29,0,0,1,6.59-.22c7.45.65,6.35,7.23,17.48.33,5.33-3,14.47-5.36,23.69,1.11,3.94,2.32,7.23,10.18,3-2.79-2-7.71-4-11.55-6.69-23.68-3.15-11.47-.6-23.18,8.75-29.51,6.75-5.93,20.43-3.29,36.31-.31,13.93,2.62,17.23-1.78,26.71-1.37,5.33.23,9.86.25,14.25,1.28a46,46,0,0,1,12.82,5c9.5,5.18,9,.06,22.23,1.81,4.25.56,5.92-.07,10.22,1.18A49.31,49.31,0,0,1,279.13,309c12.31,7.17,12.32,8.78,32.82,7.89,3.79-.17,10.56,2.76,14.22,5.15,4.07,2.66,14,8.41,22.69,9,11.12.71,20.65-.71,34.37,9.05,10,8.91,22.46,8.5,33.58,14.53,3.57,1.94,12.11,8.47,16.3,15.21.89,1.45,4.55,3.82,13.69,5.33,8.21,1.36,16.82,11.11,21.41,17.92,5.9,5.45,2.44,1.75,10.53,7.39,3.91,2.73,5.87,4.1,9.7,7,5,3.73,1.8,1,7.75,5.71,1.09.86,2.54,2.49,6.51,6.07a29.47,29.47,0,0,1,9.16,11c2.93,5.83.58,9.94-2.12,14.77-2,3.55-5.2,9.27-10.3,14.09-5.66,5.35-5.21,5.5-10.38,8.6-11.74,7-20.51,4.64-25.48,13-7.34,12.37-13.24,16.36-18.78,19-11.16,5.23-18.66,5-25.74,10.61-5.77,4.53-14.9,10.36-21.07,13.12-11.87,5.29-13.34,2.18-21.46,7.26-2.76,1.73-1,.73-7.95,6.45-4,3.29-10.37,6.09-13.54,6.53a109.86,109.86,0,0,0-12.59,2.07c-9.75,2.61-10.81,6-21.56,8.1-12.54,2.41-17.73,1.22-29.7,6.93-3.12,1.49-6.53,3-11.11,5.46-3.76,2-15.33,4.85-24.26,5.29-3.89.2-7.55-2.37-17,2.12-12.16,5.8-12.33,5.21-22,7.16-3.51.71-7.45.32-11.12.31-7,0-14.31-2.44-21.79-2.21-7.68.24-5.9-.23-12.29.5l-4.53.74-6.67,1.49-2.43.64a29.14,29.14,0,0,1-13.36.09c-6-1.19-12.68-4.79-15.11-8.09-4-4.75-4.52-9.33-4.06-15.56a267.4,267.4,0,0,1,9-31.85s3.53-8-5-3.53c-8.65,3.19-15.41-2.39-20.65-.6-5.18,2.6-8.37,5-14.85,5.93a25.47,25.47,0,0,1-11.93-1.09" transform="translate(-64.9 -292.22)" style="fill:#fffffe"/><path d="M178.47,570c7.76-.87,9.61-.34,16.57.57,6.46.85,12.65,2.1,19,1.36a49.39,49.39,0,0,0,9.52-2c9-2.87,13.15-6.77,24-8.25,9-1.22,9,.28,16.82-.1,8.23-.39,12.81-3.9,16.27-5.78,4.2-2.29,5.3-2.47,8.11-4,10.17-5.45,22.11-4.77,33.54-7.56,8-2,11.18-5.75,20.15-8.16,3.56-1,7.48-.89,11.29-1.42,2.92-.4,8.08-3,11-5.67,5-4.59,4.41-4.77,8.26-6.95,6.42-3.64,13.69-3.52,20.15-6.52,6-2.79,12.19-5.16,16.94-10,6.93-7,17.87-9,26.86-12.23,5.3-1.93,12.25-5.34,18.09-15.44,5.73-9.89,10.8-11.31,21-14.38,6.77-2,9.7-3.49,14.91-8.42a50.75,50.75,0,0,0,8.5-10.39c2.42-3.56,7.16-9.41,2.12-13.89-2.21-2-4.45-5.62-9.21-9.28a80.36,80.36,0,0,0-7.68-5.92c-5.48-4.32-.86-.91-6.13-4.24-3.72-2.35-4.77-4.24-8.6-6.41-6.86-3.87-7.57-5-13.05-11.61-4.76-8.78-12.22-10-19.7-11.67a24,24,0,0,1-13.57-9.37c-3.84-6.22-10.05-9.31-13.35-11.1-10.23-5.55-22-4.67-31.25-12.87-13.9-9.88-17.55-8.05-32.16-8.5-8.05-.24-18.63-5.4-22.07-8.26a27,27,0,0,0-9.22-4.91c-10.3-3.18-17.35,2.28-31.74-4.73-4.21-2.05-8-4.87-12.14-7.25a25.82,25.82,0,0,0-8.57-3.07c-7.62-1.65-14.25-.6-23.48.19-4.33.37-6.9-1.93-10.88-4.08a40.9,40.9,0,0,0-12.39-4.33c-6.26-1.16-13.36-.34-20.63,1.12-14.4,2.89-27.61-4.4-41.49-3.1-2.35.22-7,3.18-8.58,6.49-2.1,4.44-2.1,7-1.79,11.39.42,6,1.13,6.38,2.29,10.25,2.52,8.41,3.8,13,5.81,18.66,2.34,6.59,2.26,14.61-3.29,17.17-2.67,1.23-7.12,1.27-9.63-.65-3.91-3-6-7.17-10.45-8-5.88-1.16-12.93,4.87-19.17,6.52s-7.06-1.76-11.41-3.77c-2.89-1.34-5.67.61-7.3,1.51-2.93,1.63-3.64,5-4.32,8.6a20.26,20.26,0,0,0-.07,8.69c1,4.56,2.55,7.29,2.66,10.47.28,8-1,13.84-4.29,18.05-2.09,2.68-4.83,10.08-5.7,12.81-2.89,9.14-2.54,7.55-3.94,16-.72,4.33-.6,9.2-1,13.26-.07.75.48,10,.93,12.73,1.1,6.82,2.38,11.21,3.82,17,2.07,8.31,3,13.47,2.74,19.89-.21,6.58-4.35,12.76-.41,17.41,2.45,2.88,8.83,5.49,14,3.2s9.09-5.07,13.22-5.64c7.61-1,12.5,2.21,15.8,1.82,2.91-.34,8-3.27,10.44-3.47,1.92-.16,6.09-.35,7.55.75,2.32,1.74,3.75,3.66,3.36,9.67,0,.09-1.41,6.4-1.42,6.45-2.4,7.9-5,15.23-6.22,20.66-1.29,5.66-7.5,17.92,5.1,22.95,5.31,2.11,10.92,1.7,17.87-.09a76.5,76.5,0,0,1,8.28-1.61c0-.25,4.94-.16,4.94-.4l4.38-.18" transform="translate(-64.9 -292.22)"/><path d="M417,379.75c3.41,2.23,7.33,8,10.63,12.74,4,3.66,4.38,5.78,14.35,7.56-1.93-.35,9,3.41,10.61,4.33,4.28,2.38,5.38,3.84,9.17,8.18s5.49,5.68,13.42,11c3.08,2.06,3.63,2.8,9.49,7,2.42,1.72,5.48,4.51,6.57,6.79,2.77,5.81-1.1,7.88-7.12,11.07-9.9,5.26-18.1,3.76-27,12.87-7.44,7.6-15.58,16.87-21.08,18.54-2.4.73-8.75,2.72-13.09,5.42s-5.51,2.59-9.36,6c-4.58,4.08-7.13,7-15.55,9.92-5.19,1.79-11.31,2.62-16.75,4.25a50.76,50.76,0,0,0-10.82,4.92c-5.46,3.1-12,10.35-21.07,12-17.89,3.33-13.14,3-25.9,8.75a42.07,42.07,0,0,1-14.3,3A40.26,40.26,0,0,0,288.75,539c-4.92,2.62-9.93,7.44-19.58,8.72-11.93,1.59-12.59.09-27.39,3.26-4.49,1-10.16,4.24-14.45,5.79-4.81,1.74-16.14,2-24.15,1.23-7.82-.72-13.56-.73-24.86,1.32a91.09,91.09,0,0,1-22,1.55c-1.91-.05-3.35-1.4-4.59-3.42a10,10,0,0,1-1.33-7.14c.68-5.55.56-5.83,1.87-11,.4-1.56,2.36-11.76,2.71-13.32,2.19-9.81,2.87-19.69-4.85-24.16-2.41-1.39-8.41-2.29-12.74-1.52-13.07,2.32-10.33,4.52-18.68,1.56a25,25,0,0,0-7-1.05c-4.18.17-10.14,3.1-15.41,3.93-3.7.59-4.67-3.54-4.57-6.49.15-4.57.63-9,.43-14.08-.54-13.38-2.87-14.1-4.49-22.17-1.46-7.32-1-19.74-1.39-19.39.36-10.25,5-21.29,7.65-25.1,2.76-4,3.36-5.63,5.46-10.52,2.22-5.18,1.93-9.75.8-15.56,0-.14-1.37-4.44-.89-4.44a14.48,14.48,0,0,1,1.15-7.6c1.41-3,2.51-4.47,4.76-5.45a13.84,13.84,0,0,1,4.34-1.44c4.86-.34,5.84,2.77,14.91-1,4.7-2,9.37.67,11.68,1.52,6.29,2.29,5.2,2.29,9.21,2.42a19.6,19.6,0,0,0,11-3c2-1.24,3.57-1.92,4.78-3.68a27.53,27.53,0,0,0,2.78-7.85,26,26,0,0,0,.45-10.5c-2-7.68-2.74-9.33-4.12-14.2-1.12-4-2.47-7.76-3-11.4,0-.07-.16-4.41-.16-4.41a5.24,5.24,0,0,1,5.12-6.27c11.25-.09,21.8,3.12,33.69,3,9.81-.06,14-2.07,25.53,2.13,4,1.46,6.4,4.76,12.69,6.53,12,3.38,21.49-4.7,31.73.12,8.51,4,6.72,1.59,14.73,6.7a51.58,51.58,0,0,0,20.63,7.87c6.89,1,17.83-1.83,29.1,6.35,6.34,4.6,12.13,6.46,20.23,7.3,9.54,1,10.47-.36,18,5.1,5.54,4,4,3.12,9.59,7.28,2.53,1.88,4.51,3.8,8.17,5.45,2.09.94,10.12,2.06,9.87,2.05,7.13.37,9.14-.22,14.8,1.8-.12-.13,7.31,4.75,6,3.91" transform="translate(-64.9 -292.22)" style="fill:#fffffe"/><path d="M170.54,447.6v15.15h56.92l5.67-5.31V439.26h-8.41l0-4.61,31.37-18,2.63,2.71c-7,4.94-12.46,9.55-16.67,16.87-6.16,10.27-8.41,24.51-4.75,35.86a39.92,39.92,0,0,0,10.42,17.6c4.93,5.09,9.13,8,17.18,11.86,6.58,3.29,22.12,8,34.18,9.29,11.7.91,26.32.73,36-.55,10.6-1.1,21.57-4.94,28.15-7.65,5.3-2.56,11.15-4.94,15.64-8.45,11.34-8.16,23.29-20.46,23.47-35.83H381.25C374.6,482,310.62,492.76,285,474.5c-18.65-14.68-13.35-27.67-5.49-33.7l2.38,2.56-4,4.21.29,15.19h53.89l6.94-6.59V439.7h-4.13l-18.64-20.13c35.83-7.68,53.56,8.05,64,25.25h14l7.09-7V398l-14.95,0-9,5.56c-31.81-14.09-55.39-12.47-80.06-4.28l-4-4.1,22.78-13.62,13.74-.07,6.73-6.41,0-13.58h-55l-5.85,5.93v9.25l-51.54,29.5V383.42l8.33-8.42V361.31h-54l-7.38,8.63v10.83h8.85v58.48h-2.71s-7.24,8.2-6.87,8.34" transform="translate(-64.9 -292.22)"/><path d="M180.12,364.68h49.35v8.86l-8.41.08V412l67.27-38.43H282.4v-8.86l50.89-.07v8.86l-11.33.15L287.51,394l46.37,50.14,1.61,0v10.21H284.31V444l7.13.07-31.77-33.88-38.24,22v11.93h8v10.18H180.12V444.09h8.41V373.54h-8.41v-8.86Zm218.39,97c-2,10.43-6.73,14.64-12.61,21.41-7.86,7.32-9.47,8.24-17.33,12.44-13.52,6.77-27.6,9.69-43.69,10.07-22.49.91-42.4-3.85-54.65-9A51.49,51.49,0,0,1,244.64,475c-5.67-11.53-2.89-23.79-.88-29.83,2.52-7.32,6.54-14.82,18.28-22.83l14.77,16c-7.49,6.51-13,18.41-1.24,31.95,14,17.56,46,22.51,79.29,12.62,17.18-5.12,24.67-12.26,30.12-21.22h13.52ZM300,402c10-3.11,38.39-12.81,78.23,4.76l8.41-5.49h11.77l-.14,35.43-13.09.15c-13.35-20.09-43.69-27.16-72-20.38L300,402Z" transform="translate(-64.9 -292.22)" style="fill:#e31837"/></svg>